# xmcd
#
# Track frame offsets:
#	150
#	9543
#	26316
#	44512
#	58510
#	68644
#	88884
#	104810
#	116859
#	127790
#	151512
#	169641
#	179713
#	191506
#	206303
#	223984
#	255068
#
# Disc length: 3481 seconds
#
# Revision: 1
# Processed by: cddbd v1.5.2PL0 Copyright (c) Steve Scherf et al.
# Submitted via: audiograbber 1.83.01
#
DISCID=e40d9711
DTITLE=Jörg Hegemann - A Tribute To Albert Ammons
DYEAR=2007
DGENRE=
TTITLE0=A Tribute To Albert Ammons
TTITLE1=Boogie Woogie Blues
TTITLE2=Morning Breeze
TTITLE3=In A Little Spanish Town
TTITLE4=Has Anyone Seen Corrine
TTITLE5=Oh, Lady Be Good
TTITLE6=Norwegian Sunlight
TTITLE7=Margie
TTITLE8=Ridlin' The Roller Coaster
TTITLE9=Wall Street Diver
TTITLE10=Chicago In Mind
TTITLE11=Monday Struggle
TTITLE12=Rocket In A Bucket
TTITLE13=Sunset On A Railroad
TTITLE14=Late Arrival Jump
TTITLE15=Chicago Inc.
TTITLE16=Shout For Joy
EXTD=
EXTT0=Jörg Hegemann
EXTT1=Albert Ammons
EXTT2=Jörg Hegemann
EXTT3=M. Wayne, S.M. Lewis, J. Young, arr. A. Ammons
EXTT4=L. Johnson, R. Graham, arr. A. Ammons
EXTT5=George Gershwin
EXTT6=Jörg Hegemann
EXTT7=C. Conrad, B. Davis, J.R. Robinson, arr. A. Ammons
EXTT8=Jörg Hegemann
EXTT9=Jörg Hegemann
EXTT10=Albert Ammons
EXTT11=Alber Ammons
EXTT12=Jörg Hegemann
EXTT13=Jörg Hegemann
EXTT14=Jörg Hegemann
EXTT15=Jörg Hegemann
EXTT16=Albert Ammons
PLAYORDER=
